<svg xmlns="http://www.w3.org/2000/svg" xmlns:xlink="http://www.w3.org/1999/xlink" width="174" height="29" viewBox="0 0 174 29">
    <defs>
        <path id="a" d="M0 28.573h173.905V0H0z"/>
    </defs>
    <g fill="none" fill-rule="evenodd">
        <path fill="#3237BE" d="M9.358 15.162c-.635.82-1.518 1.23-2.65 1.23-2.319 0-3.616-1.831-3.616-4.238 0-2.406 1.297-4.239 3.616-4.239 1.132 0 2.015.41 2.65 1.231.636.82.967 1.832.967 3.008s-.331 2.188-.967 3.008M6.93 5.1c-1.574 0-2.87.679-3.837 1.69V5.427H0v18.705h3.147v-6.29c1.049.848 2.319 1.285 3.782 1.285 1.932 0 3.506-.656 4.748-1.968 1.243-1.34 1.85-3.009 1.85-5.032 0-2.024-.607-3.692-1.85-5.032-1.242-1.34-2.816-1.996-4.748-1.996M35.114 16.132L31.42 5.427h-3.373l4.637 13.432h1.464l-1.861 5.25h3.372l6.624-18.682H38.91zM49.283 15.937l-3.628-10.51h-3.372L46.92 18.86h4.709l4.72-13.406-3.373-.02z"/>
        <mask id="b" fill="#fff">
            <use xlink:href="#a"/>
        </mask>
        <path fill="#3237BE" d="M77.739 18.826h3.147v-13.4H77.74zM106.13 5.099c-1.491 0-2.65.624-3.506 1.581V5.427h-3.092v13.4h3.147v-7.411c0-2.16 1.076-3.5 2.981-3.5 1.684 0 2.678 1.23 2.678 3.117v7.794h3.147v-7.794c0-3.747-2.015-5.934-5.355-5.934M58.213 18.826h3.147v-13.4h-3.147zM58.21 0l.016 3.14 3.14.015-.015-3.14zM80.85.015L77.71 0l.015 3.14 3.14.015zM23.648 15.244c-.8.766-1.877 1.149-3.174 1.149-1.325 0-2.043-.603-2.043-1.506 0-1.057.924-1.658 2.366-1.668h2.851v2.025zM21.026 5.1c-2.209 0-4.238.94-5.247 2.64l2.337 1.595c.638-.797 1.475-1.418 2.882-1.418 1.519 0 2.65.875 2.65 2.214v.585h-2.822c-3.312 0-5.542 1.412-5.542 4.338 0 1.23.442 2.242 1.297 2.98.884.739 1.96 1.095 3.258 1.095 1.546 0 2.843-.438 3.865-1.34v1.039h3.092v-8.669c0-3.309-2.264-5.06-5.77-5.06zM70.942 10.787l-2.257-.492c-.937-.22-1.407-.63-1.407-1.258 0-.684.762-1.258 1.964-1.258 1.378 0 2.491.574 3.37 1.695l2.14-2.133C73.199 5.837 71.411 5.1 69.33 5.1c-3.078 0-5.246 1.558-5.246 3.992 0 2.216 1.465 3.61 4.367 4.24l1.905.437c1.319.328 1.758.738 1.758 1.312 0 .766-.645 1.368-2.198 1.368-1.67 0-3.048-.657-4.103-1.942l-2.11 2.023c1.465 1.724 3.458 2.599 5.95 2.599 3.634 0 5.685-1.723 5.685-4.157 0-2.16-1.465-3.555-4.396-4.184M90.295 16.008a3.932 3.932 0 1 1 0-7.863 3.932 3.932 0 0 1 0 7.863m0-10.958a7.027 7.027 0 1 0 0 14.053 7.027 7.027 0 0 0 0-14.053M146.692.043l6.263 18.756h7.336L154.028.043z" mask="url(#b)"/>
        <path fill="#AF9BFF" d="M166.555.043L160.28 18.8h7.35L173.905.043z" mask="url(#b)"/>
        <path fill="#3237BE" d="M126.816.043L133.09 18.8h-7.35L119.467.043z" mask="url(#b)"/>
        <path fill="#AF9BFF" d="M139.345.043l-9.51 28.53h7.35l9.51-28.53z" mask="url(#b)"/>
    </g>
</svg>
