<?xml version="1.0" encoding="utf-8"?>
<!-- Generator: Adobe Illustrator 23.1.0, SVG Export Plug-In . SVG Version: 6.00 Build 0)  -->
<svg version="1.1" id="Layer_1" xmlns="http://www.w3.org/2000/svg" xmlns:xlink="http://www.w3.org/1999/xlink" x="0px" y="0px"
	 viewBox="0 0 192.5 43.7" style="enable-background:new 0 0 192.5 43.7;" xml:space="preserve">
<style type="text/css">
	.st0{fill:#E91B58;}
	.st1{fill:#27282A;}
	.st2{fill:#232D5A;}
	.st3{fill:#117CBF;}
	.st4{fill:#68747A;}
	.st5{fill:#6D767B;}
	.st6{fill:url(#SVGID_9_);}
	.st7{fill:url(#SVGID_10_);stroke:url(#SVGID_11_);stroke-width:0.1685;stroke-miterlimit:10;}
	.st8{opacity:0.9;fill:url(#SVGID_12_);}
	.st9{clip-path:url(#SVGID_13_);}
	.st10{fill:#FDB913;}
	.st11{fill:#FFFFFF;}
	.st12{fill:#231F20;}
	.st13{fill:none;stroke:#00E59E;stroke-width:2.6173;stroke-linecap:round;stroke-linejoin:round;stroke-miterlimit:10;}
	.st14{fill:#013A51;}
	.st15{fill:#EE2E24;}
	.st16{fill:#62CE02;}
	.st17{fill-rule:evenodd;clip-rule:evenodd;fill:#75767A;}
	.st18{fill:#75767A;}
	.st19{fill-rule:evenodd;clip-rule:evenodd;fill:#56A633;}
	.st20{fill:#56A633;}
	.st21{fill:#BD0027;}
	.st22{fill:#43557E;}
	.st23{fill:#737374;}
	.st24{fill:#EF5125;}
	.st25{fill:#7FBA42;}
	.st26{fill:#329FD9;}
	.st27{fill:#FCB713;}
	.st28{fill:#23408F;}
	.st29{fill:#2B223F;}
	.st30{fill:#EF5274;}
	.st31{fill:#7983BF;}
	.st32{fill:#004062;}
	.st33{fill:#344E75;}
	.st34{fill:#198A83;}
	.st35{fill:url(#SVGID_14_);}
	.st36{clip-path:url(#SVGID_15_);fill:url(#SVGID_16_);}
	.st37{clip-path:url(#SVGID_17_);fill:url(#SVGID_18_);}
	.st38{clip-path:url(#SVGID_19_);fill:url(#SVGID_20_);}
	.st39{fill:url(#SVGID_21_);}
	.st40{fill:url(#SVGID_22_);stroke:url(#SVGID_23_);stroke-width:0.1398;stroke-miterlimit:10;}
	.st41{opacity:0.9;fill:url(#SVGID_24_);}
	.st42{clip-path:url(#SVGID_25_);}
	.st43{fill:none;stroke:#00E59E;stroke-width:1.4381;stroke-linecap:round;stroke-linejoin:round;stroke-miterlimit:10;}
	.st44{fill:url(#SVGID_26_);}
	.st45{clip-path:url(#SVGID_27_);fill:url(#SVGID_28_);}
	.st46{clip-path:url(#SVGID_29_);fill:url(#SVGID_30_);}
	.st47{clip-path:url(#SVGID_31_);fill:url(#SVGID_32_);}
	.st48{fill:#ECECED;}
	.st49{fill:#0082C8;}
	.st50{fill:#878787;}
	.st51{fill:#2D8BCB;}
	.st52{fill:#283980;}
	.st53{fill:#292B69;}
	.st54{fill-rule:evenodd;clip-rule:evenodd;fill:#00C5B4;}
	.st55{fill:#F69220;}
	.st56{fill:#606060;}
	.st57{fill:#ED1C24;}
	.st58{fill-rule:evenodd;clip-rule:evenodd;fill:#231F20;}
	.st59{filter:url(#Adobe_OpacityMaskFilter);}
	.st60{fill-rule:evenodd;clip-rule:evenodd;fill:#FFFFFF;}
	.st61{mask:url(#b_1_);fill-rule:evenodd;clip-rule:evenodd;fill:#231F20;}
	.st62{filter:url(#Adobe_OpacityMaskFilter_1_);}
	.st63{mask:url(#d_1_);fill-rule:evenodd;clip-rule:evenodd;fill:#006E00;}
	.st64{filter:url(#Adobe_OpacityMaskFilter_2_);}
	.st65{mask:url(#g_1_);fill-rule:evenodd;clip-rule:evenodd;fill:url(#SVGID_33_);}
	.st66{fill-rule:evenodd;clip-rule:evenodd;fill:#69D720;}
	.st67{filter:url(#Adobe_OpacityMaskFilter_3_);}
	.st68{mask:url(#i_1_);fill-rule:evenodd;clip-rule:evenodd;fill:#69D720;}
	.st69{fill:#D24A00;}
	.st70{fill:#555555;}
	.st71{fill:#707070;}
	.st72{enable-background:new    ;}
	.st73{fill:#565656;}
	.st74{fill-rule:evenodd;clip-rule:evenodd;fill:#1A1A1A;}
	.st75{fill-rule:evenodd;clip-rule:evenodd;fill:#FE5407;}
	.st76{fill:#1F2A44;}
	.st77{fill:#EAEAEA;}
	.st78{fill:#003454;}
	.st79{fill:#A5C54B;}
	.st80{fill:#7FB642;}
	.st81{fill:#31393C;}
	.st82{fill:#00BCDD;}
	.st83{fill:#003E69;}
	.st84{fill:#323CBB;}
	.st85{fill:#AF9FFB;}
</style>
<g>
	<g>
		<path class="st84" d="M140,7.1l6.9,20.6h-8.1l-6.9-20.6L140,7.1z"/>
	</g>
	<g>
		<path class="st85" d="M153.7,7.1l-10.4,31.3h8.1l10.4-31.3L153.7,7.1z"/>
	</g>
	<g>
		<path class="st84" d="M161.8,7.1l6.9,20.6h8l-6.9-20.6L161.8,7.1z"/>
	</g>
	<g>
		<path class="st85" d="M183.6,7.1l-6.9,20.6h8.1l6.9-20.6L183.6,7.1z"/>
	</g>
</g>
<g id="payvision-word">
	<path class="st84" d="M10.8,23.7C10.1,24.6,9.2,25,7.9,25C5.4,25,4,23,4,20.4s1.4-4.6,3.9-4.6c1.2,0,2.2,0.4,2.9,1.3
		c0.7,0.9,1.1,2,1.1,3.3C11.9,21.7,11.5,22.8,10.8,23.7L10.8,23.7z M8.2,12.7c-1.7,0-3.1,0.7-4.2,1.8V13H0.6v20.4H4v-6.9
		C5.2,27.5,6.6,28,8.2,28c2.1,0,3.8-0.7,5.2-2.1c1.4-1.5,2-3.3,2-5.5s-0.7-4-2-5.5S10.3,12.7,8.2,12.7L8.2,12.7z"/>
	<path class="st84" d="M38.9,24.7l-4-11.7h-3.7l5.1,14.7h1.6l-2,5.7h3.7L46.7,13H43L38.9,24.7z"/>
	<path class="st84" d="M54.4,24.5l-4-11.5h-3.7l5.1,14.7h5.1l5.1-14.6l-3.7,0L54.4,24.5z"/>
	<path class="st84" d="M85.4,27.7h3.4V13h-3.4V27.7z"/>
	<path class="st84" d="M116.4,12.7c-1.6,0-2.9,0.7-3.8,1.7V13h-3.4v14.6h3.4v-8.1c0-2.4,1.2-3.8,3.3-3.8c1.8,0,2.9,1.3,2.9,3.4v8.5
		h3.4v-8.5C122.2,15.1,120,12.7,116.4,12.7L116.4,12.7z"/>
	<path class="st84" d="M64.1,27.7h3.4V13h-3.4V27.7z"/>
	<path class="st84" d="M64.1,7.1l0,3.4l3.4,0l0-3.4L64.1,7.1z"/>
	<path class="st84" d="M88.8,7.1l-3.4,0l0,3.4l3.4,0L88.8,7.1z"/>
	<path class="st84" d="M26.4,23.8c-0.9,0.8-2,1.3-3.5,1.3c-1.4,0-2.2-0.7-2.2-1.6c0-1.2,1-1.8,2.6-1.8h3.1L26.4,23.8L26.4,23.8z
		 M23.5,12.7c-2.4,0-4.6,1-5.7,2.9l2.6,1.7c0.7-0.9,1.6-1.5,3.1-1.5c1.7,0,2.9,1,2.9,2.4v0.6h-3.1c-3.6,0-6,1.5-6,4.7
		c0,1.3,0.5,2.4,1.4,3.3c1,0.8,2.1,1.2,3.6,1.2c1.7,0,3.1-0.5,4.2-1.5v1.1h3.4v-9.5C29.8,14.6,27.4,12.7,23.5,12.7L23.5,12.7z"/>
	<path class="st84" d="M78,18.9l-2.5-0.5c-1-0.2-1.5-0.7-1.5-1.4c0-0.7,0.8-1.4,2.1-1.4c1.5,0,2.7,0.6,3.7,1.9l2.3-2.3
		c-1.7-1.6-3.6-2.4-5.9-2.4c-3.4,0-5.7,1.7-5.7,4.4c0,2.4,1.6,3.9,4.8,4.6l2.1,0.5c1.4,0.4,1.9,0.8,1.9,1.4c0,0.8-0.7,1.5-2.4,1.5
		c-1.8,0-3.3-0.7-4.5-2.1l-2.3,2.2c1.6,1.9,3.8,2.8,6.5,2.8c4,0,6.2-1.9,6.2-4.5C82.8,21.1,81.2,19.6,78,18.9L78,18.9z"/>
	<path class="st84" d="M99.1,24.6c-2.4,0-4.3-1.9-4.3-4.3s1.9-4.3,4.3-4.3c2.4,0,4.3,1.9,4.3,4.3S101.5,24.6,99.1,24.6z M99.1,12.6
		c-4.2,0-7.7,3.4-7.7,7.7s3.4,7.7,7.7,7.7c4.2,0,7.7-3.4,7.7-7.7S103.3,12.6,99.1,12.6z"/>
</g>
</svg>
